<svg width="32" height="32" viewBox="0 0 32 32" fill="none" xmlns="http://www.w3.org/2000/svg">
<g clip-path="url(#clip0_3323_2782)">
<circle cx="16" cy="16" r="16" fill="white"/>
<path d="M14.3768 7.74087C18.3965 7.64661 20.9735 9.51424 22.3917 11.8784C23.7719 14.1794 24.0537 16.9465 23.5789 18.769C23.5077 19.0419 23.3097 19.264 23.0465 19.3652C22.8161 19.4537 22.5605 19.4402 22.3424 19.3316L22.2514 19.2788C21.2804 18.6397 20.2073 18.5147 19.218 18.6405C18.3421 18.7519 17.5745 19.0561 17.0911 19.3235L16.902 19.4354C16.5561 19.6541 16.1048 19.6038 15.8155 19.3143C15.5263 19.0249 15.476 18.5737 15.6948 18.228L15.8712 17.9375C16.7125 16.4903 16.9444 15.1175 16.6676 13.7844C16.3671 12.3374 15.4431 10.8235 13.7931 9.24911C13.5371 9.0048 13.4539 8.62988 13.5816 8.29983C13.7094 7.96995 14.0231 7.74917 14.3768 7.74087ZM16.5463 9.67907C17.4835 10.885 18.1125 12.1334 18.3815 13.4286C18.6343 14.6459 18.5596 15.8581 18.1759 17.0556C18.4391 16.9927 18.7138 16.9405 18.9972 16.9045C19.932 16.7856 20.9892 16.8338 22.0365 17.2221C22.0876 15.9116 21.7662 14.2375 20.8907 12.7781C20.0378 11.3564 18.6592 10.135 16.5463 9.67907Z" fill="#464646"/>
<path d="M24.8183 18.5655C25.0847 18.4265 25.4051 18.423 25.6771 18.5629C25.9879 18.7228 26.1836 19.0433 26.1836 19.3929V23.2328C26.1836 23.5889 25.9805 23.9139 25.6608 24.0707C23.5238 25.1182 20.0017 26.2511 16.4153 26.4034C12.9512 26.5504 9.23361 25.784 6.75454 22.8988L6.51886 22.613C6.29986 22.3369 6.25497 21.9608 6.40298 21.641C6.551 21.3212 6.86653 21.1118 7.21873 21.1L8.17837 21.0655C10.5558 20.9724 13.8511 20.7922 16.9381 20.4457C18.7033 20.2476 20.3815 19.997 21.7728 19.6827C23.2015 19.3599 24.2003 18.9956 24.7077 18.6332L24.8183 18.5655Z" fill="#464646"/>
<path d="M11.0393 6.37255C11.4937 6.2084 11.9928 6.41878 12.1977 6.8451L12.2343 6.93366L12.677 8.17031C14.7783 14.0937 15.2042 16.1769 15.1791 17.9809C15.1621 19.2056 14.4683 20.1927 13.5903 20.7187C12.7772 21.2058 11.669 21.3638 10.7347 20.784L10.5503 20.6577L10.4766 20.5967C10.1286 20.2765 10.0729 19.7386 10.3621 19.3518C10.6516 18.9648 11.184 18.8661 11.5895 19.1099L11.6686 19.1634L11.7536 19.216C11.9664 19.3243 12.2809 19.3268 12.6311 19.1169C13.0207 18.8835 13.3061 18.4589 13.3132 17.9553C13.3332 16.5185 13.0224 14.7319 10.9226 8.80851L10.4788 7.56746L10.4509 7.47654C10.3358 7.01761 10.5847 6.5368 11.0393 6.37255Z" fill="#464646"/>
</g>
<defs>
<clipPath id="clip0_3323_2782">
<rect width="32" height="32" fill="white"/>
</clipPath>
</defs>
</svg>
