<svg width="694" height="193" viewBox="0 0 694 193" fill="none" xmlns="http://www.w3.org/2000/svg">
<path d="M1 1C32 15 43.5 2.68848 57.5 7.18848C71.5 11.6885 66.5 27.1885 57.5 23.1885C48.5 19.1885 61 -0.811523 73 7.18848C85 15.1885 67 41.1886 73 60.6886C79 80.1886 87.5 107.689 147.5 97.6886C207.5 87.6886 195.5 102.689 225.5 97.6886C255.5 92.6886 246.5 88.6886 261 83.6886C275.5 78.6886 288 80.1886 300.5 83.6886C313 87.1886 327 83.6886 337 90.6886C347 97.6886 358.5 113.189 385.5 110.689C412.5 108.189 437 93.6886 449 97.6886C461 101.689 460.5 121.689 478 121.689C495.5 121.689 511 105.689 544.5 110.689C578 115.689 580 133.689 585.5 136.689C591 139.689 604.5 138.689 605 133.689C605.5 128.689 589.536 126.403 602 141.689C610 151.5 688.5 160.5 693 198.5" stroke="#FF4B30" stroke-width="1.5" stroke-linecap="round" stroke-linejoin="round"/>
</svg>
