<?xml version="1.0" encoding="UTF-8"?>
<svg id="_图层_1" data-name="图层 1" xmlns="http://www.w3.org/2000/svg" viewBox="0 0 142.03 31.79">
  <defs>
    <style>
      .cls-1 {
        fill: #1e1e1e;
      }
    </style>
  </defs>
  <path class="cls-1" d="M1.6,6.38c.07,0,.13-.01.2-.02l-.42.03c2.73-.17,5.38.67,8.09.81s5.6-.32,8.3-1.02c1.49-.38,2.96-.84,4.43-1.29.48-.15.84-.57,1.07-.99.29-.53.47-1.26.44-1.87-.03-.53-.11-1.16-.47-1.57-.29-.32-.68-.56-1.13-.42-3.27,1.01-6.58,2.02-10.01,2.26l.42-.03c-1.81.12-3.57-.06-5.35-.34-.88-.14-1.76-.29-2.64-.38-1.01-.1-2-.11-3.01-.02-.44.04-.9.67-1.07.99C.15,3.05-.03,3.79,0,4.39c.03.53.11,1.16.47,1.57l.32.3c.25.16.52.2.8.12h0Z"/>
  <path class="cls-1" d="M14.26,8.43l.89,5.69c.3,1.89.62,3.77.82,5.67l-.06-.61c.14,1.34.23,2.69.14,4.04l.04-.66c-.04.58-.12,1.15-.25,1.72l.15-.64c-.1.41-.23.81-.39,1.2l.24-.56c-.16.36-.34.69-.55,1.02l.31-.46c-.23.33-.49.63-.78.91l.36-.34c-.44.41-.94.74-1.48,1l.4-.19c-.82.4-1.71.62-2.62.68l.42-.03c-1.04.06-2.06-.1-3.03-.47l.39.15c-1.04-.41-1.97-1.02-2.79-1.78l.32.3c-.76-.72-1.4-1.54-1.93-2.44l.25.43c-.48-.84-.85-1.73-1.14-2.65l.16.53c-.31-1.02-.5-2.07-.61-3.14l.06.61c-.11-1.1-.14-2.2-.11-3.31.01-.49-.15-1.18-.47-1.57-.26-.32-.71-.56-1.13-.42-1.14.37-1.48,1.82-1.51,2.86-.05,1.76.05,3.53.36,5.27.29,1.64.79,3.3,1.6,4.76s1.74,2.66,2.99,3.71c1.07.9,2.36,1.56,3.72,1.89,2.78.68,5.86-.3,7.76-2.44,1.29-1.45,1.97-3.41,2.23-5.31.24-1.76.19-3.55,0-5.31-.21-2.12-.55-4.23-.88-6.33l-.92-5.85c-.07-.44-.34-1.02-.73-1.26-.37-.23-.86-.19-1.2.07-.98.73-1.23,2.14-1.05,3.27h0Z"/>
  <path class="cls-1" d="M25.86,14.18c.01.08.02.17.03.25l-.06-.61c.14,1.32.04,2.65-.04,3.98-.09,1.5-.12,2.97.11,4.46.24,1.62.91,3.12,1.88,4.43.39.52.81,1.02,1.26,1.49.53.56,1.11,1.11,1.77,1.53.59.38,1.28.65,1.96.82s1.41.16,2.13.1c.59-.05,1.18-.19,1.72-.43.63-.28,1.23-.6,1.75-1.06s.98-.92,1.37-1.49c.25-.36.5-.72.7-1.11s.39-.83.57-1.26c.21-.51.38-1.05.51-1.59.18-.74.34-1.47.42-2.22.34-3.1.08-6.37-1.19-9.25-.13-.29-.27-.58-.42-.86-.21-.39-.47-.81-.96-.88-.44-.07-.91.23-1.18.56-.38.47-.63,1.07-.71,1.67l-.04.66c0,.39.08.78.23,1.14.39.71.69,1.46.93,2.24l-.16-.53c.25.84.42,1.7.51,2.57l-.06-.61c.1.96.11,1.93.04,2.89l.04-.66c-.05.74-.15,1.47-.32,2.19l.15-.64c-.13.56-.31,1.11-.53,1.64l.24-.56c-.19.45-.43.89-.7,1.3l.31-.46c-.26.39-.57.74-.91,1.06l.36-.34c-.39.35-.82.65-1.29.88l.4-.19c-.61.29-1.26.45-1.93.5l.42-.03c-.79.05-1.57-.06-2.31-.34l.39.15c-.73-.28-1.36-.74-1.93-1.27l.32.3c-.86-.81-1.66-1.75-2.26-2.77l.25.43c-.27-.46-.48-.95-.64-1.45l.16.53c-.16-.52-.26-1.05-.32-1.59l.06.61c-.13-1.28-.04-2.56.04-3.84.04-.65.08-1.3.08-1.95,0-.83-.06-1.65-.16-2.47-.06-.43-.35-1.03-.73-1.26s-.86-.19-1.2.07c-.44.33-.76.84-.92,1.36l-.15.64c-.07.42-.06.85.02,1.27h0Z"/>
  <path class="cls-1" d="M45.96,11.29c.1,4.62.47,9.23,1.07,13.81.16,1.24.35,2.48.55,3.71.07.44.34,1.02.73,1.26.37.23.86.19,1.2-.07.99-.74,1.21-2.13,1.05-3.27-.04-.28-.08-.56-.11-.85l.06.61c-.12-1.21-.14-2.42-.06-3.63l-.04.66c.08-1.19.26-2.36.54-3.52l-.15.64c.27-1.13.63-2.25,1.09-3.32l-.24.56c.33-.76.7-1.49,1.16-2.18l-.31.46c.39-.58.84-1.12,1.36-1.6l-.36.34c.4-.36.83-.67,1.32-.9l-.4.19c.51-.24,1.05-.41,1.62-.45l-.42.03c.42-.02.83.03,1.22.18l-.39-.15c.29.12.54.28.77.48l-.32-.3c.24.23.43.48.59.77l-.25-.43c.37.67.59,1.41.83,2.14.28.84.55,1.68.8,2.53l-.16-.53c.8,2.63,1.48,5.3,2.06,7.99.1.45.32,1.01.73,1.26.37.23.86.19,1.2-.07.44-.33.76-.84.92-1.36.19-.61.27-1.28.13-1.91-.55-2.58-1.21-5.15-1.96-7.68-.42-1.41-.86-2.81-1.34-4.2-.42-1.21-1.04-2.53-2.22-3.16-1.08-.58-2.37-.58-3.5-.15-1.28.49-2.33,1.33-3.21,2.37-.83.98-1.5,2.11-2.02,3.28-.56,1.27-1.05,2.57-1.38,3.93-.21.87-.41,1.74-.54,2.62s-.2,1.77-.25,2.66c-.09,1.6.02,3.2.25,4.78l2.99-2.08c-.37-2.28-.68-4.56-.92-6.85l.06.61c-.35-3.34-.56-6.7-.63-10.06-.01-.51-.14-1.16-.47-1.57-.26-.32-.71-.56-1.13-.42-.48.16-.85.55-1.07.99-.29.58-.45,1.22-.44,1.87h0Z"/>
  <path class="cls-1" d="M68.52,20.11c.29-.43.63-.83,1.02-1.18l-.36.34c.61-.56,1.3-1.02,2.05-1.38l-.4.19c1.55-.74,3.25-1.08,4.95-1.19l-.42.03c1.78-.11,3.64-.03,5.33.61l-.39-.15c.74.29,1.43.69,2.02,1.23l-.32-.3c.37.35.68.74.94,1.17l-.25-.43c.22.38.39.78.52,1.2l-.16-.53c.11.37.18.74.22,1.13l-.06-.61c.04.37.04.73.02,1.1l.04-.66c-.03.37-.08.73-.16,1.09l.15-.64c-.09.36-.2.71-.34,1.05l.24-.56c-.16.38-.36.74-.6,1.08l.31-.46c-.3.44-.65.84-1.03,1.2l.36-.34c-.6.56-1.28,1.01-2.02,1.37l.4-.19c-1.07.51-2.22.82-3.4.9l.42-.03c-.8.05-1.62,0-2.38-.28l.39.15c-.45-.18-.85-.43-1.21-.76l.32.3c-.35-.33-.64-.71-.88-1.13l.25.43c-.28-.5-.5-1.03-.67-1.57l.16.53c-.22-.73-.36-1.49-.45-2.25l.06.61c-.07-.73-.08-1.46-.04-2.19l-.04.66c.05-.68.15-1.35.31-2.01l-.15.64c.08-.32.16-.64.28-.95l-.24.56c.06-.14.13-.27.21-.4l-.31.46c.07-.1.15-.2.24-.28l-.36.34c.06-.06.13-.1.21-.14l-.4.19c.09-.04.18-.07.29-.08l-.42.03s.07,0,.1,0c.23.04.43,0,.61-.12.23-.09.42-.23.56-.43.38-.43.64-1.11.71-1.67s.08-1.26-.18-1.8c-.18-.36-.49-.88-.96-.88-.5,0-.77.06-1.2.31-.27.16-.52.39-.71.63-.45.56-.79,1.23-.99,1.92-.4,1.36-.6,2.72-.67,4.13-.06,1.18.04,2.38.25,3.54.18,1.01.46,2.03.91,2.95.48.98,1.08,1.84,1.95,2.52.79.62,1.85.93,2.85.98,1.95.09,3.87-.43,5.56-1.39s3.07-2.46,3.83-4.2c.46-1.07.81-2.18.9-3.34s.07-2.32-.25-3.44c-.29-1.04-.71-2.03-1.4-2.88-.58-.72-1.33-1.33-2.16-1.75-1.6-.81-3.38-1.09-5.16-1.09s-3.45.17-5.09.67c-1.75.54-3.33,1.45-4.6,2.78-.27.28-.51.58-.73.9-.19.22-.34.47-.43.74-.14.29-.23.6-.27.93-.08.55-.07,1.29.18,1.8.19.38.48.84.96.88.45.03.92-.18,1.18-.56h0Z"/>
  <path class="cls-1" d="M120.01,4.01c-.47,1.68-1.01,3.35-1.59,5-.3.84-.62,1.68-.95,2.5-.15.36-.29.73-.44,1.09-.08.2-.17.39-.25.59.35-.83-.01.03-.1.22-1.41,3.2-3.03,6.31-4.87,9.29-.5.82-1.03,1.63-1.56,2.43-.06.09-.12.18-.18.27.41-.61.1-.15.01-.02-.14.21-.28.41-.43.62-.29.41-.58.82-.87,1.22-.37.51-.61,1.04-.71,1.67-.08.55-.07,1.29.18,1.8.19.38.48.84.96.88s.91-.19,1.18-.56c4.38-6.01,7.91-12.59,10.48-19.56.69-1.88,1.31-3.78,1.85-5.7.17-.62.26-1.28.13-1.91-.09-.41-.32-1.05-.73-1.26-1-.53-1.87.56-2.12,1.43h0Z"/>
  <path class="cls-1" d="M105.71,11.82c.26.07.52.16.77.25l-.39-.15c1.41.55,2.64,1.44,3.84,2.36,1.35,1.03,2.68,2.08,4.01,3.14,2.68,2.13,5.32,4.3,7.95,6.48,1.47,1.22,2.95,2.45,4.42,3.68.33.28.89.14,1.2-.07.43-.29.77-.88.92-1.36.32-1.07.32-2.41-.6-3.18-2.72-2.27-5.44-4.53-8.18-6.77s-5.5-4.46-8.31-6.61c-1.5-1.14-3.05-2.17-4.89-2.67-.43-.12-.93.27-1.18.56-.38.43-.64,1.11-.71,1.67-.12.98.01,2.37,1.14,2.68h0Z"/>
  <path class="cls-1" d="M131.99,9.16h6.42c.23.04.43,0,.61-.12.23-.09.42-.23.56-.43.19-.22.34-.47.43-.74.14-.29.23-.6.27-.93l.04-.66c0-.39-.08-.78-.23-1.14l-.25-.43c-.18-.24-.42-.39-.71-.45h-6.42c-.23-.04-.43,0-.61.12-.23.09-.42.23-.56.43-.19.22-.34.47-.43.74-.14.29-.23.6-.27.93l-.04.66c0,.39.08.78.23,1.14l.25.43c.18.24.42.39.71.45h0Z"/>
  <path class="cls-1" d="M134.92,7.15c-.34,5.53-.16,11.06.43,16.57.16,1.5.36,2.99.59,4.48.07.44.34,1.02.73,1.26.37.23.86.19,1.2-.07.98-.73,1.23-2.14,1.05-3.27-.24-1.56-.44-3.12-.61-4.68l.06.61c-.42-4.07-.59-8.16-.49-12.24.03-1.17.08-2.34.15-3.51.03-.48-.16-1.19-.47-1.57-.26-.32-.71-.56-1.13-.42-.48.16-.85.55-1.07.99-.3.6-.4,1.2-.44,1.87h0Z"/>
  <path class="cls-1" d="M133.51,29.56c1.71.13,3.42.19,5.14.17.48,0,.97-.02,1.45-.03.23.04.43,0,.61-.12.23-.09.42-.23.56-.43.19-.22.34-.47.43-.74.14-.29.23-.6.27-.93l.04-.66c0-.39-.08-.78-.23-1.14l-.25-.43c-.18-.24-.42-.39-.71-.45-1.71.06-3.43.05-5.14-.04-.48-.03-.97-.06-1.45-.09-.23-.04-.43,0-.61.12-.23.09-.42.23-.56.43-.19.22-.34.47-.43.74-.14.29-.23.6-.27.93l-.04.66c0,.39.08.78.23,1.14l.25.43c.18.24.42.39.71.45h0Z"/>
</svg>